# xmcd
#
# Track frame offsets: 
#        182
#        12922
#        25615
#        34620
#        47350
#        58717
#        68775
#        81495
#        94700
#        109265
#        122930
#        134675
#        150740
#        162997
#        176727
#        189135
#        201370
#        212737
#        226095
#        238032
#        249887
#        261912
#        272837
#        283302
#        292052
#        303015
#        312920
#
# Disc length: 4358 seconds
#
# Revision: 4
# Processed by: cddbd v1.5.2PL0 Copyright (c) Steve Scherf et al.
# Submitted via: ExactAudioCopyFreeDBPlugin 1.0
#
DISCID=8311041b
DTITLE=Various Artist - The Cobra Records Story:  Chicago Rock and Bl
DTITLE=ues, 1956-1958 [Capricorn box set]
DYEAR=1993
DGENRE=Blues
TTITLE0=Otis Rush and Willie Dixon Band - Three Times a Fool
TTITLE1=Otis Rush and Willie Dixon Band - She's a Good 'Un
TTITLE2=Betty Everett - Ain't Gonna Cry
TTITLE3=Magic Sam - All Night Long
TTITLE4=Harold Burrage - I Cry for You
TTITLE5=Magic Sam - All My Whole Life
TTITLE6=Otis Rush - It Takes Time
TTITLE7=Otis Rush - Checking on My Baby
TTITLE8=Charles Clark and Willie Dixon Band - Row Your Boat
TTITLE9=Buddy Guy and His Band - Sit and Cry (The Blues)
TTITLE10=Buddy Guy and His Band - Try to Quit You Baby
TTITLE11=Magic Sam - Easy Baby
TTITLE12=Magic Sam - 21 Days in Jail
TTITLE13=Shakey Jake and Willie Dixon Band - Call Me If You Need Me
TTITLE14=Shakey Jake and Willie Dixon Band - Roll Your Moneymaker
TTITLE15=Otis Rush and His Band - Double Trouble
TTITLE16=Otis Rush and His Band - Keep on Loving Me Baby
TTITLE17=Buddy Guy and His Band - This is the End
TTITLE18=Buddy Guy and His Band - You Sure Can't Do
TTITLE19=Otis Rush and His Band - All Your Love (I Miss Loving)
TTITLE20=Otis Rush and His Band - My Baby's a Good 'Un
TTITLE21=Ike Turner's Kings of Rhythm - Matchbox
TTITLE22=Ike Turner's Kings of Rhythm - You've Got to Loose
TTITLE23=Ike Turner's Kings of Rhythm - Box Top
TTITLE24=Ike Turner's Kings of Rhythm - You Keep on Worrying Me
TTITLE25=Ike Turner's Kings of Rhythm - (I Know) You Don't Love Me
TTITLE26=Ike Turner's Kings of Rhythm - Down and Out
EXTD=
EXTT0=
EXTT1=
EXTT2=
EXTT3=
EXTT4=
EXTT5=
EXTT6=
EXTT7=
EXTT8=
EXTT9=
EXTT10=
EXTT11=
EXTT12=
EXTT13=
EXTT14=
EXTT15=
EXTT16=
EXTT17=
EXTT18=
EXTT19=
EXTT20=
EXTT21=
EXTT22=
EXTT23=
EXTT24=
EXTT25=
EXTT26=
PLAYORDER=
